REM GENRE Folk
REM DATE 2005
REM DISCID 9A0D690B
REM COMMENT ExactAudioCopy v0.99pb1
PERFORMER "Thanateros"
TITLE "Into The Otherworld"
REM REPLAYGAIN_ALBUM_GAIN -10.33 dB
REM REPLAYGAIN_ALBUM_PEAK 1.000000
FILE "Thanateros - Into The Otherworld.flac" WAVE
  TRACK 01 AUDIO
    TITLE "Calling Ilyr"
    ISRC 000000000000
    REM REPLAYGAIN_TRACK_GAIN -10.21 dB
    REM REPLAYGAIN_TRACK_PEAK 1.000000
    INDEX 01 00:00:00
  TRACK 02 AUDIO
    TITLE "Follow"
    ISRC 000000000000
    REM REPLAYGAIN_TRACK_GAIN -11.18 dB
    REM REPLAYGAIN_TRACK_PEAK 1.000000
    INDEX 00 04:11:53
    INDEX 01 04:13:36
  TRACK 03 AUDIO
    TITLE "Siuil A Run"
    ISRC 000000000000
    REM REPLAYGAIN_TRACK_GAIN -11.52 dB
    REM REPLAYGAIN_TRACK_PEAK 1.000000
    INDEX 00 08:00:38
    INDEX 01 08:02:31
  TRACK 04 AUDIO
    TITLE "Maggy"
    ISRC 000000000000
    REM REPLAYGAIN_TRACK_GAIN -9.65 dB
    REM REPLAYGAIN_TRACK_PEAK 1.000000
    INDEX 01 11:22:59
  TRACK 05 AUDIO
    TITLE "I'm Changing"
    ISRC 000000000000
    REM REPLAYGAIN_TRACK_GAIN -9.33 dB
    REM REPLAYGAIN_TRACK_PEAK 1.000000
    INDEX 00 14:15:11
    INDEX 01 14:15:70
  TRACK 06 AUDIO
    TITLE "Song As A Kiss"
    ISRC 000000000000
    REM REPLAYGAIN_TRACK_GAIN -8.34 dB
    REM REPLAYGAIN_TRACK_PEAK 1.000000
    INDEX 01 20:46:23
  TRACK 07 AUDIO
    TITLE "No Rest"
    ISRC 000000000000
    REM REPLAYGAIN_TRACK_GAIN -11.37 dB
    REM REPLAYGAIN_TRACK_PEAK 1.000000
    INDEX 00 24:15:56
    INDEX 01 24:17:61
  TRACK 08 AUDIO
    TITLE "Dirty Old Town"
    ISRC 000000000000
    REM REPLAYGAIN_TRACK_GAIN -10.82 dB
    REM REPLAYGAIN_TRACK_PEAK 1.000000
    INDEX 01 28:31:15
  TRACK 09 AUDIO
    TITLE "In Time"
    ISRC 000000000000
    REM REPLAYGAIN_TRACK_GAIN -10.97 dB
    REM REPLAYGAIN_TRACK_PEAK 1.000000
    INDEX 00 32:37:52
    INDEX 01 32:40:01
  TRACK 10 AUDIO
    TITLE "Four Winds"
    ISRC 000000000000
    REM REPLAYGAIN_TRACK_GAIN -9.76 dB
    REM REPLAYGAIN_TRACK_PEAK 1.000000
    INDEX 00 36:46:67
    INDEX 01 36:49:17
  TRACK 11 AUDIO
    TITLE "Привет"
    ISRC 000000000000
    REM REPLAYGAIN_TRACK_GAIN -9.91 dB
    REM REPLAYGAIN_TRACK_PEAK 1.000000
    INDEX 00 42:12:17
    INDEX 01 42:14:74